<?xml version="1.0" encoding="utf-8"?>
<!-- Generator: Adobe Illustrator 15.1.0, SVG Export Plug-In . SVG Version: 6.00 Build 0)  -->
<!DOCTYPE svg PUBLIC "-//W3C//DTD SVG 1.0//EN" "http://www.w3.org/TR/2001/REC-SVG-20010904/DTD/svg10.dtd">
<svg version="1.0" id="Layer_1" xmlns="http://www.w3.org/2000/svg" xmlns:xlink="http://www.w3.org/1999/xlink" x="0px" y="0px"
	 width="543.825px" height="318.341px" viewBox="0 0 543.825 318.341" enable-background="new 0 0 543.825 318.341"
	 xml:space="preserve">
<g>
	<g>
		<path d="M364.884,295.395c-5.092,12.096-18.235,19.388-30.713,19.388c-20.862,0-36.303-19.922-37.779-42.334v-3.557
			c0.984-20.276,13.794-42.514,36.3-42.514c12.813,0,23.222,6.4,29.957,16.517l-51.618,20.788l1.243,3.292l55.574-22.272
			c-7.055-12.939-19.396-21.88-35.156-21.88c-23.816,0-38.931,23.126-39.587,47.848c0,23.659,17.244,47.671,41.066,47.671
			c12.812,0,28.579-7.648,33.835-22.059L364.884,295.395z"/>
		<path d="M540.975,309.448v-51.052c0-19.921-11.558-35.574-33.795-35.574c-11.383,0-22.412,5.516-32.02,12.094l2.139,2.847
			c10.318-7.292,20.989-11.385,29.881-11.385c18.322,0,30.242,13.165,30.242,32.019v32.729c0,2.135-0.895,4.625-2.671,7.293
			c-7.294,11.382-22.943,16.363-36.463,16.363c-13.698,0-26.325-9.783-26.325-24.725c0-17.25,19.389-22.765,34.508-22.765
			c5.984,0,11.409,0.224,17.411,1.439l0.616-3.337c-5.013-0.947-11.078-1.661-18.027-1.661c-16.01,0-38.068,6.402-38.068,26.323
			c0,15.832,13.163,28.283,29.886,28.283c14.406,0,29.707-5.336,39.134-17.432v8.539c0,3.733,2.312,6.939,6.402,7.112v-3.556
			C541.863,313.005,541.336,311.58,540.975,309.448z"/>
		<path d="M446.156,316.561v-79.571h3.561v79.571H446.156z M455.057,223.579c0,3.828-3.103,6.929-6.927,6.929
			c-3.829,0-6.93-3.101-6.93-6.929c0-3.829,3.101-6.927,6.93-6.927C451.955,216.652,455.057,219.75,455.057,223.579z"/>
		<path d="M426.112,227.803c-18.855,0.713-31.308,13.519-35.932,30.417v58.341h-3.557v-92.315h3.557v23.834
			c7.646-14.943,19.741-23.834,35.932-23.834V227.803z"/>
		<path d="M287.989,312.292c-0.18,0.179-7.116,5.159-16.898,5.159c-8.538,0-16.009-5.691-16.009-14.229v-75.419h-13.34v-3.558h13.34
			v-32.192h3.556v32.192h22.236v3.558h-22.236v75.419c0.536,6.937,6.226,10.674,12.454,10.674c8.181,0,14.585-4.269,14.941-4.447
			L287.989,312.292z"/>
		<path d="M228.494,309.448v-51.052c0-19.921-11.562-35.574-33.797-35.574c-11.384,0-22.411,5.516-32.017,12.094l2.135,2.847
			c10.314-7.292,20.986-11.385,29.881-11.385c18.322,0,30.239,13.165,30.239,32.019v32.729c0,2.135-0.892,4.625-2.668,7.293
			c-7.293,11.382-22.947,16.363-36.466,16.363c-13.695,0-26.324-9.783-26.324-24.725c0-17.25,19.388-22.765,34.507-22.765
			c5.986,0,11.414,0.224,17.413,1.439l0.618-3.337c-5.012-0.947-11.082-1.661-18.031-1.661c-16.007,0-38.064,6.402-38.064,26.323
			c0,15.832,13.162,28.283,29.881,28.283c14.409,0,29.706-5.336,39.134-17.432v8.539c0,3.733,2.313,6.939,6.402,7.112v-3.556
			C229.381,313.005,228.848,311.58,228.494,309.448z"/>
		<path d="M133.875,316.561V198.097l-56.03,93.562H75l-56.032-93.562v118.464h-3.557V190.27h2.846l58.165,97.12l58.166-97.12h2.845
			v126.291H133.875z"/>
	</g>
	<g>
		<path fill="#FFFFFF" d="M276.143,70.22c-16.27,0-30.853,7.186-40.778,18.543c-9.924-11.357-24.507-18.543-40.776-18.543
			c-7.006,0-13.696,1.345-19.842,3.768c2.423-6.146,3.768-12.834,3.768-19.841C178.514,24.242,154.273,0,124.368,0
			C94.462,0,70.22,24.242,70.22,54.147c0,7.007,1.346,13.696,3.77,19.841c-6.147-2.423-12.836-3.768-19.842-3.768
			C24.242,70.22,0,94.463,0,124.367c0,29.906,24.242,54.147,54.147,54.147c29.904,0,54.147-24.241,54.147-54.147
			c0-7.005-1.345-13.694-3.768-19.842c6.146,2.423,12.834,3.771,19.841,3.771c7.006,0,13.696-1.348,19.842-3.771
			c-2.423,6.148-3.768,12.837-3.768,19.842c0,29.906,24.243,54.147,54.147,54.147c16.27,0,30.853-7.183,40.776-18.543
			c9.926,11.36,24.508,18.543,40.778,18.543c29.902,0,54.147-24.241,54.147-54.147C330.291,94.463,306.045,70.22,276.143,70.22z"/>
		<path d="M276.143,73.967c-15.372,0-29.126,6.891-38.372,17.741c6.878,9.079,10.965,20.39,10.965,32.659
			c0,12.27-4.086,23.582-10.965,32.66c9.246,10.852,23,17.741,38.372,17.741c27.832,0,50.399-22.564,50.399-50.4
			C326.542,96.532,303.975,73.967,276.143,73.967z M276.143,145.653c-11.756,0-21.286-9.531-21.286-21.286
			c0-11.754,9.529-21.285,21.286-21.285c11.753,0,21.283,9.531,21.283,21.285C297.426,136.122,287.896,145.653,276.143,145.653z"/>
		<g>
			<path d="M105.114,63.175c-1.29-2.742-2.032-5.796-2.032-9.028c0-11.755,9.53-21.284,21.285-21.284
				c11.754,0,21.284,9.528,21.284,21.284c0,3.436-0.833,6.673-2.28,9.547l21.042,21.044c6.491-8.486,10.354-19.085,10.354-30.591
				c0-27.835-22.565-50.4-50.401-50.4c-27.835,0-50.4,22.565-50.4,50.4c0,11.31,3.726,21.751,10.016,30.16L105.114,63.175z"/>
			<path d="M133.916,73.151c-2.875,1.447-6.112,2.281-9.548,2.281c-3.021,0-5.89-0.638-8.493-1.773L94.673,94.863
				c8.328,6.084,18.589,9.684,29.695,9.684c11.507,0,22.107-3.863,30.591-10.353L133.916,73.151z"/>
		</g>
		<path d="M194.588,73.967c-7.978,0-15.499,1.894-22.202,5.195c-1.521,2.915-3.299,5.67-5.306,8.243l17.959,17.957
			c2.874-1.447,6.11-2.281,9.548-2.281c11.755,0,21.285,9.531,21.285,21.285c0,11.755-9.53,21.286-21.285,21.286
			s-21.285-9.531-21.285-21.286c0-3.438,0.834-6.675,2.281-9.548L157.625,96.86c-2.572,2.006-5.329,3.784-8.243,5.306
			c-3.302,6.704-5.195,14.224-5.195,22.202c0,27.836,22.565,50.4,50.401,50.4c27.835,0,50.401-22.564,50.401-50.4
			C244.989,96.532,222.423,73.967,194.588,73.967z"/>
		<path d="M91.987,97.55l-18.328,18.325c1.135,2.604,1.772,5.471,1.772,8.492c0,11.755-9.529,21.286-21.284,21.286
			c-11.755,0-21.285-9.531-21.285-21.286c0-11.754,9.53-21.285,21.285-21.285c3.232,0,6.284,0.743,9.029,2.032l18.14-18.14
			c-1.873-2.453-3.538-5.072-4.977-7.831c-6.701-3.294-14.221-5.176-22.192-5.176c-27.835,0-50.401,22.564-50.401,50.4
			c0,27.836,22.566,50.4,50.401,50.4c27.836,0,50.401-22.564,50.401-50.4c0-7.971-1.88-15.493-5.179-22.191
			C96.781,100.824,94.309,99.284,91.987,97.55z"/>
	</g>
</g>
</svg>
