<?xml version="1.0" encoding="utf-8"?>
<!-- Generator: Adobe Illustrator 15.1.0, SVG Export Plug-In . SVG Version: 6.00 Build 0)  -->
<!DOCTYPE svg PUBLIC "-//W3C//DTD SVG 1.0//EN" "http://www.w3.org/TR/2001/REC-SVG-20010904/DTD/svg10.dtd">
<svg version="1.0" id="Layer_1" xmlns="http://www.w3.org/2000/svg" xmlns:xlink="http://www.w3.org/1999/xlink" x="0px" y="0px"
	 width="752.303px" height="132.647px" viewBox="0 0 752.303 132.647" enable-background="new 0 0 752.303 132.647"
	 xml:space="preserve">
<g>
	<g>
		<path fill="#FFFFFF" d="M233.818,64.158c-7.295-7.39-17.421-11.979-28.625-11.979c-12.089,0-22.925,5.338-30.3,13.776
			c-7.375-8.438-18.21-13.776-30.3-13.776c-5.206,0-10.177,0.999-14.744,2.798c1.801-4.568,2.8-9.535,2.8-14.743
			C132.648,18.013,114.634,0,92.414,0C70.192,0,52.178,18.013,52.178,40.234c0,5.208,1,10.175,2.801,14.743
			c-4.568-1.799-9.538-2.798-14.745-2.798C18.014,52.179,0,70.194,0,92.411c0,22.224,18.014,40.237,40.234,40.237
			c22.222,0,40.236-18.013,40.236-40.237c0-5.206-1-10.172-2.801-14.741c4.568,1.797,9.538,2.799,14.745,2.799
			c5.207,0,10.177-1.001,14.744-2.799c-1.801,4.568-2.8,9.535-2.8,14.741c0,22.224,18.013,40.237,40.234,40.237
			c12.09,0,22.925-5.336,30.3-13.779c7.375,8.443,18.211,13.779,30.3,13.779c11.204,0,21.33-4.587,28.625-11.977V64.158z"/>
		<g>
			<path d="M78.108,46.94c-0.958-2.035-1.51-4.307-1.51-6.706c0-8.734,7.082-15.816,15.816-15.816s15.815,7.082,15.815,15.816
				c0,2.554-0.619,4.958-1.695,7.094l15.637,15.637c4.822-6.305,7.693-14.18,7.693-22.73c0-20.683-16.768-37.452-37.451-37.452
				S54.963,19.551,54.963,40.234c0,8.403,2.768,16.162,7.442,22.411L78.108,46.94z"/>
			<path d="M99.509,54.354c-2.137,1.076-4.541,1.697-7.095,1.697c-2.246,0-4.376-0.476-6.311-1.316L70.348,70.488
				c6.189,4.521,13.814,7.199,22.066,7.199c8.55,0,16.426-2.874,22.731-7.696L99.509,54.354z"/>
		</g>
		<path d="M144.592,54.961c-5.927,0-11.517,1.407-16.497,3.861c-1.131,2.166-2.451,4.213-3.944,6.125l13.346,13.345
			c2.135-1.076,4.54-1.697,7.095-1.697c8.735,0,15.817,7.082,15.817,15.816c0,8.734-7.082,15.816-15.817,15.816
			c-8.734,0-15.816-7.082-15.816-15.816c0-2.554,0.62-4.958,1.695-7.094l-13.343-13.345c-1.912,1.492-3.961,2.813-6.126,3.943
			c-2.453,4.981-3.859,10.569-3.859,16.496c0,20.686,16.768,37.452,37.451,37.452c20.684,0,37.451-16.767,37.451-37.452
			C182.043,71.728,165.276,54.961,144.592,54.961z"/>
		<path d="M68.352,72.486L54.733,86.104c0.842,1.933,1.317,4.064,1.317,6.307c0,8.734-7.082,15.816-15.816,15.816
			s-15.815-7.082-15.815-15.816c0-8.735,7.081-15.816,15.815-15.816c2.402,0,4.671,0.553,6.711,1.512l13.478-13.48
			c-1.391-1.82-2.628-3.767-3.697-5.819c-4.979-2.446-10.567-3.847-16.491-3.847c-20.683,0-37.45,16.767-37.45,37.45
			c0,20.686,16.767,37.452,37.45,37.452c20.685,0,37.451-16.767,37.451-37.452c0-5.922-1.396-11.51-3.846-16.489
			C71.915,74.918,70.077,73.774,68.352,72.486z"/>
		<path d="M231.428,65.705c-6.757-6.639-16.014-10.744-26.235-10.744c-11.422,0-21.644,5.121-28.512,13.184
			c5.111,6.746,8.146,15.151,8.146,24.266c0,9.12-3.036,17.525-8.146,24.271c6.868,8.062,17.09,13.181,28.512,13.181
			c10.221,0,19.478-4.106,26.235-10.745V65.705z M205.193,108.227c-8.736,0-15.815-7.082-15.815-15.816
			c0-8.735,7.08-15.816,15.815-15.816c8.734,0,15.816,7.082,15.816,15.816C221.009,101.145,213.927,108.227,205.193,108.227z"/>
	</g>
	<g>
		<path d="M578.782,107.902c-4.937,11.732-17.682,18.802-29.784,18.802c-20.228,0-35.204-19.318-36.635-41.051v-3.45
			c0.954-19.666,13.377-41.227,35.202-41.227c12.427,0,22.518,6.207,29.051,16.018l-50.057,20.158l1.207,3.191l53.892-21.598
			c-6.844-12.546-18.809-21.218-34.093-21.218c-23.095,0-37.754,22.424-38.389,46.401c0,22.938,16.723,46.226,39.821,46.226
			c12.428,0,27.717-7.416,32.814-21.388L578.782,107.902z"/>
		<path d="M749.542,121.529V72.026c0-19.32-11.206-34.499-32.771-34.499c-11.036,0-21.733,5.348-31.05,11.729l2.075,2.759
			c10.005-7.068,20.352-11.039,28.975-11.039c17.77,0,29.326,12.764,29.326,31.049v31.738c0,2.068-0.868,4.484-2.588,7.07
			c-7.073,11.038-22.25,15.87-35.361,15.87c-13.281,0-25.526-9.489-25.526-23.975c0-16.734,18.8-22.079,33.461-22.079
			c5.803,0,11.063,0.219,16.888,1.396l0.598-3.238c-4.86-0.913-10.747-1.608-17.485-1.608c-15.522,0-36.915,6.209-36.915,25.529
			c0,15.35,12.768,27.424,28.98,27.424c13.969,0,28.807-5.175,37.949-16.904v8.279c0,3.623,2.241,6.729,6.207,6.9v-3.45
			C750.403,124.979,749.89,123.6,749.542,121.529z"/>
		<path d="M657.593,128.429V51.266h3.452v77.164H657.593z M666.223,38.262c0,3.711-3.009,6.72-6.716,6.72
			c-3.711,0-6.72-3.008-6.72-6.72s3.009-6.72,6.72-6.72C663.214,31.542,666.223,34.551,666.223,38.262z"/>
		<path d="M638.155,42.356c-18.284,0.69-30.356,13.111-34.845,29.497v56.576h-3.445V38.906h3.445v23.115
			c7.418-14.49,19.145-23.115,34.845-23.115V42.356z"/>
		<path d="M504.214,124.291c-0.173,0.17-6.9,5.002-16.386,5.002c-8.279,0-15.527-5.521-15.527-13.8V42.356h-12.934v-3.45h12.934
			V7.687h3.45v31.22h21.563v3.45h-21.563v73.137c0.518,6.728,6.039,10.348,12.077,10.348c7.934,0,14.143-4.139,14.491-4.312
			L504.214,124.291z"/>
		<path d="M446.522,121.529V72.026c0-19.32-11.213-34.499-32.776-34.499c-11.039,0-21.731,5.348-31.045,11.729l2.068,2.759
			c10.004-7.068,20.354-11.039,28.977-11.039c17.768,0,29.324,12.764,29.324,31.049v31.738c0,2.068-0.864,4.484-2.588,7.07
			c-7.068,11.038-22.25,15.87-35.358,15.87c-13.282,0-25.527-9.489-25.527-23.975c0-16.734,18.8-22.079,33.461-22.079
			c5.805,0,11.066,0.219,16.888,1.396l0.598-3.238c-4.862-0.913-10.747-1.608-17.485-1.608c-15.525,0-36.911,6.209-36.911,25.529
			c0,15.35,12.761,27.424,28.977,27.424c13.972,0,28.806-5.175,37.947-16.904v8.279c0,3.623,2.243,6.729,6.209,6.9v-3.45
			C447.383,124.979,446.863,123.6,446.522,121.529z"/>
		<path d="M354.768,128.429V13.552l-54.333,90.728h-2.76l-54.335-90.728v114.877h-3.45V5.964h2.76l56.406,94.175l56.403-94.175h2.76
			v122.465H354.768z"/>
	</g>
</g>
</svg>
