<?xml version="1.0" encoding="utf-8"?>
<!-- Generator: Adobe Illustrator 15.1.0, SVG Export Plug-In . SVG Version: 6.00 Build 0)  -->
<!DOCTYPE svg PUBLIC "-//W3C//DTD SVG 1.0//EN" "http://www.w3.org/TR/2001/REC-SVG-20010904/DTD/svg10.dtd">
<svg version="1.0" id="Layer_1" xmlns="http://www.w3.org/2000/svg" xmlns:xlink="http://www.w3.org/1999/xlink" x="0px" y="0px"
	 width="579.093px" height="436.653px" viewBox="0 0 579.093 436.653" enable-background="new 0 0 579.093 436.653"
	 xml:space="preserve">
<g>
	<g>
		<path fill="#231F20" d="M370.923,414.753c-4.86,11.543-17.401,18.505-29.315,18.505c-19.909,0-34.643-19.015-36.055-40.405v-3.392
			c0.942-19.354,13.165-40.575,34.647-40.575c12.228,0,22.163,6.107,28.587,15.763l-49.259,19.835l1.182,3.146l53.043-21.255
			c-6.731-12.354-18.514-20.89-33.553-20.89c-22.733,0-37.158,22.075-37.786,45.667c0,22.581,16.465,45.501,39.194,45.501
			c12.232,0,27.284-7.297,32.297-21.046L370.923,414.753z"/>
		<path fill="#231F20" d="M538.988,428.162v-48.718c0-19.016-11.033-33.959-32.253-33.959c-10.863,0-21.387,5.267-30.562,11.548
			l2.044,2.716c9.848-6.957,20.031-10.863,28.519-10.863c17.488,0,28.866,12.563,28.866,30.559v31.237
			c0,2.036-0.858,4.411-2.55,6.958c-6.966,10.862-21.901,15.618-34.804,15.618c-13.073,0-25.122-9.342-25.122-23.596
			c0-16.47,18.505-21.735,32.929-21.735c5.711,0,10.894,0.218,16.622,1.378l0.588-3.183c-4.786-0.902-10.579-1.587-17.21-1.587
			c-15.274,0-36.325,6.112-36.325,25.127c0,15.108,12.563,26.991,28.519,26.991c13.748,0,28.352-5.091,37.354-16.639v8.147
			c0,3.565,2.201,6.626,6.107,6.792v-3.392C539.833,431.562,539.337,430.202,538.988,428.162z"/>
		<path fill="#231F20" d="M448.492,434.954v-75.946h3.399v75.946H448.492z M456.988,346.209c0,3.653-2.965,6.618-6.613,6.618
			s-6.613-2.965-6.613-6.618c0-3.648,2.965-6.608,6.613-6.608S456.988,342.561,456.988,346.209z"/>
		<path fill="#231F20" d="M429.359,350.241c-17.995,0.681-29.878,12.903-34.289,29.028v55.685h-3.396v-88.108h3.396v22.751
			c7.293-14.26,18.84-22.751,34.289-22.751V350.241z"/>
		<path fill="#231F20" d="M297.532,430.882c-0.166,0.17-6.792,4.926-16.125,4.926c-8.147,0-15.279-5.436-15.279-13.583v-71.983
			h-12.738v-3.396h12.738v-30.728h3.391v30.728h21.221v3.396H269.52v71.983c0.51,6.618,5.942,10.184,11.888,10.184
			c7.808,0,13.923-4.071,14.259-4.246L297.532,430.882z"/>
		<path fill="#231F20" d="M240.754,428.162v-48.718c0-19.016-11.042-33.959-32.258-33.959c-10.863,0-21.386,5.267-30.562,11.548
			l2.044,2.716c9.843-6.957,20.026-10.863,28.518-10.863c17.489,0,28.858,12.563,28.858,30.559v31.237
			c0,2.036-0.846,4.411-2.546,6.958c-6.958,10.862-21.901,15.618-34.804,15.618c-13.069,0-25.122-9.342-25.122-23.596
			c0-16.47,18.504-21.735,32.934-21.735c5.71,0,10.894,0.218,16.617,1.378l0.597-3.183c-4.791-0.902-10.584-1.587-17.214-1.587
			c-15.279,0-36.325,6.112-36.325,25.127c0,15.108,12.559,26.991,28.514,26.991c13.753,0,28.352-5.091,37.35-16.639v8.147
			c0,3.565,2.206,6.626,6.116,6.792v-3.392C241.6,431.562,241.089,430.202,240.754,428.162z"/>
		<path fill="#231F20" d="M150.444,434.954V321.89l-53.47,89.298h-2.72L40.78,321.89v113.064h-3.396V314.422H40.1l55.51,92.694
			l55.514-92.694h2.716v120.532H150.444z"/>
	</g>
	<g>
		<path fill="#FFFFFF" d="M484.159,123.117c-28.527,0-54.094,12.598-71.5,32.511c-17.397-19.913-42.964-32.511-71.491-32.511
			c-12.284,0-24.01,2.358-34.787,6.609c4.246-10.778,6.604-22.505,6.604-34.789C312.986,42.504,270.484,0,218.051,0
			s-94.939,42.504-94.939,94.937c0,12.284,2.363,24.011,6.608,34.787c-10.776-4.248-22.502-6.606-34.786-6.606
			C42.502,123.117,0,165.623,0,218.054c0,52.432,42.502,94.935,94.935,94.935c52.432,0,94.935-42.502,94.935-94.935
			c0-12.287-2.358-24.013-6.608-34.789c10.776,4.246,22.502,6.606,34.791,6.606c12.284,0,24.015-2.36,34.791-6.606
			c-4.25,10.776-6.608,22.502-6.608,34.789c0,52.432,42.502,94.935,94.935,94.935c28.527,0,54.093-12.594,71.491-32.511
			c17.406,19.917,42.973,32.511,71.5,32.511c52.428,0,94.935-42.502,94.935-94.935C579.093,165.623,536.586,123.117,484.159,123.117
			z"/>
		<path fill="#231F20" d="M484.159,129.686c-26.953,0-51.068,12.082-67.28,31.103c12.062,15.922,19.224,35.752,19.224,57.265
			c0,21.512-7.162,41.342-19.224,57.262c16.212,19.024,40.327,31.104,67.28,31.104c48.796,0,88.364-39.564,88.364-88.365
			C572.523,169.25,532.955,129.686,484.159,129.686z M484.159,255.373c-20.61,0-37.324-16.713-37.324-37.319
			c0-20.613,16.714-37.321,37.324-37.321c20.605,0,37.314,16.708,37.314,37.321C521.473,238.659,504.764,255.373,484.159,255.373z"
			/>
		<g>
			<path fill="#231F20" d="M184.293,110.767c-2.262-4.812-3.561-10.164-3.561-15.831c0-20.612,16.708-37.321,37.319-37.321
				c20.606,0,37.319,16.709,37.319,37.321c0,6.024-1.464,11.698-4.001,16.737l36.896,36.894
				c11.377-14.874,18.152-33.457,18.152-53.631c0-48.803-39.564-88.367-88.365-88.367s-88.365,39.564-88.365,88.367
				c0,19.828,6.53,38.132,17.559,52.879L184.293,110.767z"/>
			<path fill="#231F20" d="M234.791,128.254c-5.039,2.537-10.715,4-16.739,4c-5.296,0-10.327-1.118-14.891-3.108l-37.171,37.175
				c14.599,10.669,32.589,16.983,52.062,16.983c20.174,0,38.758-6.776,53.636-18.156L234.791,128.254z"/>
		</g>
		<path fill="#231F20" d="M341.168,129.686c-13.984,0-27.175,3.32-38.928,9.108c-2.667,5.109-5.78,9.941-9.302,14.451l31.491,31.489
			c5.039-2.54,10.715-4.001,16.739-4.001c20.61,0,37.319,16.708,37.319,37.321c0,20.605-16.709,37.319-37.319,37.319
			c-20.61,0-37.319-16.713-37.319-37.319c0-6.029,1.46-11.703,3.997-16.742l-31.482-31.489c-4.512,3.518-9.346,6.637-14.455,9.305
			c-5.789,11.752-9.111,24.937-9.111,38.926c0,48.801,39.564,88.365,88.37,88.365c48.805,0,88.37-39.564,88.37-88.365
			C429.538,169.25,389.973,129.686,341.168,129.686z"/>
		<path fill="#231F20" d="M161.277,171.031l-32.132,32.131c1.988,4.564,3.104,9.595,3.104,14.892
			c0,20.605-16.704,37.319-37.314,37.319s-37.319-16.713-37.319-37.319c0-20.613,16.708-37.321,37.319-37.321
			c5.667,0,11.02,1.301,15.833,3.563l31.805-31.805c-3.287-4.301-6.208-8.893-8.727-13.729c-11.752-5.776-24.935-9.076-38.91-9.076
			c-48.806,0-88.37,39.564-88.37,88.368c0,48.801,39.564,88.365,88.37,88.365s88.37-39.564,88.37-88.365
			c0-13.978-3.3-27.167-9.084-38.913C169.686,176.776,165.349,174.073,161.277,171.031z"/>
	</g>
</g>
</svg>
