<?xml version="1.0" encoding="utf-8"?>
<!-- Generator: Adobe Illustrator 24.2.1, SVG Export Plug-In . SVG Version: 6.00 Build 0)  -->
<svg version="1.1" id="Layer_1" xmlns="http://www.w3.org/2000/svg" xmlns:xlink="http://www.w3.org/1999/xlink" x="0px" y="0px"
	 viewBox="0 0 129.73 98.24" style="enable-background:new 0 0 129.73 98.24;" xml:space="preserve">
<style type="text/css">
	.st0{fill:#FFFFFF;}
	.st1{fill:#EF804B;}
	.st2{fill:#5CA1CB;}
	.st3{fill:#73BF54;}
	.st4{fill:#9D539F;}
	.st5{fill:#231F20;}
</style>
<g>
	<g>
		<path class="st0" d="M108.46,27.58c-6.39,0-12.12,2.82-16.02,7.28c-3.9-4.46-9.62-7.28-16.02-7.28c-2.75,0-5.38,0.53-7.79,1.48
			c0.95-2.41,1.48-5.04,1.48-7.79C70.12,9.52,60.59,0,48.85,0S27.58,9.52,27.58,21.27c0,2.75,0.53,5.38,1.48,7.79
			c-2.41-0.95-5.04-1.48-7.79-1.48C9.52,27.58,0,37.1,0,48.85C0,60.6,9.52,70.12,21.27,70.12s21.27-9.52,21.27-21.27
			c0-2.75-0.53-5.38-1.48-7.79c2.41,0.95,5.04,1.48,7.79,1.48c2.75,0,5.38-0.53,7.79-1.48c-0.95,2.41-1.48,5.04-1.48,7.79
			c0,11.75,9.52,21.27,21.27,21.27c6.39,0,12.12-2.82,16.02-7.28c3.9,4.46,9.63,7.28,16.02,7.28c11.75,0,21.27-9.52,21.27-21.27
			C129.73,37.1,120.21,27.58,108.46,27.58z"/>
		<path class="st1" d="M108.46,29.05c-6.04,0-11.44,2.71-15.07,6.97c2.7,3.57,4.31,8.01,4.31,12.83c0,4.82-1.6,9.26-4.31,12.83
			c3.63,4.26,9.03,6.97,15.07,6.97c10.93,0,19.8-8.86,19.8-19.8S119.39,29.05,108.46,29.05z M108.46,57.21
			c-4.62,0-8.36-3.74-8.36-8.36c0-4.62,3.74-8.36,8.36-8.36c4.62,0,8.36,3.74,8.36,8.36C116.82,53.47,113.08,57.21,108.46,57.21z"/>
		<g>
			<path class="st2" d="M41.29,24.81c-0.51-1.08-0.8-2.28-0.8-3.55c0-4.62,3.74-8.36,8.36-8.36c4.62,0,8.36,3.74,8.36,8.36
				c0,1.35-0.33,2.62-0.9,3.75l8.27,8.27c2.55-3.33,4.07-7.5,4.07-12.01c0-10.93-8.86-19.8-19.8-19.8c-10.93,0-19.8,8.86-19.8,19.8
				c0,4.44,1.46,8.54,3.93,11.85L41.29,24.81z"/>
			<path class="st2" d="M52.6,28.73c-1.13,0.57-2.4,0.9-3.75,0.9c-1.19,0-2.31-0.25-3.34-0.7l-8.33,8.33
				c3.27,2.39,7.3,3.8,11.66,3.8c4.52,0,8.68-1.52,12.02-4.07L52.6,28.73z"/>
		</g>
		<path class="st3" d="M76.43,29.05c-3.13,0-6.09,0.74-8.72,2.04c-0.6,1.14-1.29,2.23-2.08,3.24l7.05,7.05
			c1.13-0.57,2.4-0.9,3.75-0.9c4.62,0,8.36,3.74,8.36,8.36c0,4.62-3.74,8.36-8.36,8.36c-4.62,0-8.36-3.74-8.36-8.36
			c0-1.35,0.33-2.62,0.9-3.75l-7.05-7.05c-1.01,0.79-2.09,1.49-3.24,2.08c-1.3,2.63-2.04,5.59-2.04,8.72
			c0,10.93,8.86,19.8,19.8,19.8s19.8-8.86,19.8-19.8S87.36,29.05,76.43,29.05z"/>
		<path class="st4" d="M36.13,38.31l-7.2,7.2c0.45,1.02,0.7,2.15,0.7,3.34c0,4.62-3.74,8.36-8.36,8.36c-4.62,0-8.36-3.74-8.36-8.36
			c0-4.62,3.74-8.36,8.36-8.36c1.27,0,2.47,0.29,3.55,0.8l7.12-7.12c-0.74-0.96-1.39-1.99-1.95-3.08c-2.63-1.29-5.59-2.03-8.72-2.03
			c-10.93,0-19.8,8.86-19.8,19.8s8.86,19.8,19.8,19.8c10.93,0,19.8-8.86,19.8-19.8c0-3.13-0.74-6.09-2.04-8.72
			C38.01,39.6,37.04,39,36.13,38.31z"/>
	</g>
	<g>
		<path class="st5" d="M81.03,92.4c-0.86,2.05-3.14,3.48-5.55,3.48c-4.01,0-6.67-4.01-6.92-7.85l0-0.69
			c0.19-3.84,2.57-7.92,6.62-7.92c1.92,0,3.63,0.8,4.9,2.27l-10.26,4.13l0.78,2.07l12.78-5.12l-0.4-0.74
			c-1.68-3.07-4.52-4.84-7.8-4.84c-5.53,0-8.66,5.38-8.79,10.47c0,5.04,3.65,10.43,9.09,10.43c2.86,0,6.39-1.71,7.58-4.97l0.28-0.76
			l-2.05-0.58L81.03,92.4z"/>
		<path class="st5" d="M121.8,95.54l-0.54-0.02c0-0.01-0.01-0.03-0.01-0.04v-10.3c0-4.85-2.99-7.98-7.62-7.98
			c-2.12,0-4.39,0.85-6.93,2.59l-0.65,0.44l1.34,1.79l0.6-0.42c1.98-1.4,3.99-2.17,5.64-2.17c3.28,0,5.39,2.26,5.39,5.75v6.65
			c0,0.28-0.15,0.66-0.42,1.08c-1.41,2.2-4.53,2.98-6.77,2.98c-2.26,0-4.6-1.6-4.6-4.27c0-3.77,5.62-3.87,6.26-3.87
			c1.21,0,2.25,0.05,3.39,0.28l0.75,0.15l0.4-2.17l-0.74-0.14c-1.24-0.23-2.51-0.35-3.8-0.35c-4.22,0-8.48,1.89-8.48,6.1
			c0,3.64,3,6.5,6.82,6.5c2.79,0,5.32-0.87,7.2-2.44c0.05,1.17,0.88,2.03,2.02,2.08l0.78,0.03v-1.51L121.8,95.54z"/>
		<g>
			<rect x="99.48" y="81.58" class="st5" width="2.23" height="16.66"/>
			<path class="st5" d="M100.63,74.44c-1.19,0-2.16,0.97-2.16,2.16c0,1.19,0.97,2.16,2.16,2.16c1.19,0,2.16-0.97,2.16-2.16
				C102.79,75.41,101.82,74.44,100.63,74.44z"/>
		</g>
		<path class="st5" d="M95.16,77.49c-2.63,0-4.86,1.05-6.55,3.08v-3.08h-2.22v20.25h2.22v-12.5c0.95-3.35,3.4-5.41,6.58-5.53
			l0.72-0.03v-2.2H95.16z"/>
		<path class="st5" d="M64.96,94.58l-0.58,0.29l-0.09,0.05c-0.83,0.5-1.76,0.77-2.61,0.77c-0.76,0-1.68-0.38-1.78-1.45V79.71h4.52
			v-2.22h-4.52v-6.54h-2.22v6.54h-2.71v2.22h2.71v14.57c0,2.04,1.76,3.64,4,3.64c2.18,0,3.79-1.1,3.96-1.26l0.45-0.44L64.96,94.58z"
			/>
		<path class="st5" d="M53.82,95.54l-0.54-0.02c0-0.01-0.01-0.03-0.01-0.04v-10.3c0-4.85-2.99-7.98-7.62-7.98
			c-2.12,0-4.39,0.85-6.93,2.59l-0.65,0.44l1.34,1.79l0.6-0.42c1.98-1.4,3.99-2.17,5.64-2.17c3.27,0,5.39,2.26,5.39,5.75v6.65
			c0,0.28-0.15,0.66-0.42,1.08c-1.41,2.2-4.53,2.98-6.77,2.98c-2.26,0-4.6-1.6-4.6-4.27c0-3.77,5.62-3.87,6.26-3.87
			c1.21,0,2.25,0.05,3.39,0.28l0.75,0.15l0.4-2.17l-0.74-0.14c-1.24-0.23-2.52-0.35-3.8-0.35c-4.22,0-8.48,1.89-8.48,6.1
			c0,3.64,3,6.5,6.82,6.5c2.79,0,5.32-0.87,7.2-2.44c0.05,1.17,0.88,2.03,2.02,2.08l0.78,0.03v-1.51L53.82,95.54z"/>
		<polygon class="st5" points="33.05,70.59 33.05,70.21 32.82,70.59 32.02,70.59 20.63,89.6 9.24,70.59 8.43,70.59 8.21,70.21 
			8.21,70.59 7.49,70.59 7.49,97.74 9.71,97.74 9.71,75.64 19.91,92.68 21.34,92.68 31.55,75.64 31.55,97.74 33.77,97.74 
			33.77,70.59 		"/>
	</g>
</g>
</svg>
