<?xml version="1.0" encoding="utf-8"?>
<!-- Generator: Adobe Illustrator 24.2.1, SVG Export Plug-In . SVG Version: 6.00 Build 0)  -->
<svg version="1.1" id="Layer_1" xmlns="http://www.w3.org/2000/svg" xmlns:xlink="http://www.w3.org/1999/xlink" x="0px" y="0px"
	 viewBox="0 0 217.2 124.09" style="enable-background:new 0 0 217.2 124.09;" xml:space="preserve">
<style type="text/css">
	.st0{fill:#FFFFFF;}
	.st1{fill:#EF804B;}
	.st2{fill:#5CA1CB;}
	.st3{fill:#73BF54;}
	.st4{fill:#9D539F;}
	.st5{fill:#231F20;}
</style>
<g>
	<g>
		<path class="st0" d="M108.46,27.58c-6.39,0-12.12,2.82-16.02,7.28c-3.9-4.46-9.63-7.28-16.02-7.28c-2.75,0-5.38,0.53-7.79,1.48
			c0.95-2.41,1.48-5.04,1.48-7.79C70.12,9.52,60.6,0,48.85,0S27.58,9.52,27.58,21.27c0,2.75,0.53,5.38,1.48,7.79
			c-2.41-0.95-5.04-1.48-7.79-1.48C9.52,27.58,0,37.1,0,48.85C0,60.6,9.52,70.12,21.27,70.12c11.75,0,21.27-9.52,21.27-21.27
			c0-2.75-0.53-5.38-1.48-7.79c2.41,0.95,5.04,1.48,7.79,1.48c2.75,0,5.38-0.53,7.79-1.48c-0.95,2.41-1.48,5.04-1.48,7.79
			c0,11.75,9.52,21.27,21.27,21.27c6.39,0,12.12-2.82,16.02-7.28c3.9,4.46,9.63,7.28,16.02,7.28c11.75,0,21.27-9.52,21.27-21.27
			C129.73,37.1,120.21,27.58,108.46,27.58z"/>
		<path class="st1" d="M108.46,29.05c-6.04,0-11.44,2.71-15.07,6.97c2.7,3.57,4.31,8.01,4.31,12.83c0,4.82-1.6,9.26-4.31,12.83
			c3.63,4.26,9.03,6.97,15.07,6.97c10.93,0,19.8-8.86,19.8-19.8S119.4,29.05,108.46,29.05z M108.46,57.21
			c-4.62,0-8.36-3.74-8.36-8.36c0-4.62,3.74-8.36,8.36-8.36c4.62,0,8.36,3.74,8.36,8.36C116.82,53.47,113.08,57.21,108.46,57.21z"/>
		<g>
			<path class="st2" d="M41.29,24.81c-0.51-1.08-0.8-2.28-0.8-3.55c0-4.62,3.74-8.36,8.36-8.36c4.62,0,8.36,3.74,8.36,8.36
				c0,1.35-0.33,2.62-0.9,3.75l8.27,8.27c2.55-3.33,4.07-7.5,4.07-12.01c0-10.93-8.86-19.8-19.8-19.8s-19.8,8.86-19.8,19.8
				c0,4.44,1.46,8.54,3.93,11.85L41.29,24.81z"/>
			<path class="st2" d="M52.6,28.73c-1.13,0.57-2.4,0.9-3.75,0.9c-1.19,0-2.31-0.25-3.34-0.7l-8.33,8.33
				c3.27,2.39,7.3,3.8,11.66,3.8c4.52,0,8.68-1.52,12.02-4.07L52.6,28.73z"/>
		</g>
		<path class="st3" d="M76.43,29.05c-3.13,0-6.09,0.74-8.72,2.04c-0.6,1.14-1.3,2.23-2.08,3.24l7.05,7.05
			c1.13-0.57,2.4-0.9,3.75-0.9c4.62,0,8.36,3.74,8.36,8.36c0,4.62-3.74,8.36-8.36,8.36c-4.62,0-8.36-3.74-8.36-8.36
			c0-1.35,0.33-2.62,0.9-3.75l-7.05-7.05c-1.01,0.79-2.09,1.49-3.24,2.08c-1.3,2.63-2.04,5.59-2.04,8.72
			c0,10.93,8.86,19.8,19.8,19.8s19.8-8.86,19.8-19.8S87.36,29.05,76.43,29.05z"/>
		<path class="st4" d="M36.13,38.31l-7.2,7.2c0.45,1.02,0.7,2.15,0.7,3.34c0,4.62-3.74,8.36-8.36,8.36c-4.62,0-8.36-3.74-8.36-8.36
			c0-4.62,3.74-8.36,8.36-8.36c1.27,0,2.47,0.29,3.55,0.8l7.12-7.12c-0.74-0.96-1.39-1.99-1.95-3.08c-2.63-1.29-5.59-2.03-8.72-2.03
			c-10.93,0-19.8,8.86-19.8,19.8s8.86,19.8,19.8,19.8s19.8-8.86,19.8-19.8c0-3.13-0.74-6.09-2.03-8.72
			C38.01,39.6,37.04,39,36.13,38.31z"/>
	</g>
	<g>
		<path class="st5" d="M141.43,113.24c-1.6,3.8-5.84,6.46-10.3,6.46c-7.45,0-12.39-7.46-12.86-14.58l0-1.27
			c0.35-7.13,4.78-14.71,12.3-14.71c3.57,0,6.74,1.49,9.09,4.22l-19.05,7.67l1.46,3.85l23.74-9.52l-0.75-1.38
			c-3.11-5.71-8.39-8.98-14.49-8.98c-10.27,0-16.08,10-16.33,19.45c0,9.36,6.79,19.38,16.89,19.38c5.32,0,11.86-3.17,14.08-9.24
			l0.51-1.41l-3.81-1.09L141.43,113.24z"/>
		<path class="st5" d="M217.14,119.08l-1.01-0.04c-0.01-0.02-0.01-0.05-0.02-0.08V99.82c0-9-5.55-14.82-14.14-14.82
			c-3.94,0-8.15,1.57-12.87,4.81l-1.2,0.82l2.5,3.32l1.11-0.78c3.69-2.61,7.4-4.04,10.47-4.04c6.08,0,10.01,4.19,10.01,10.68v12.35
			c0,0.53-0.28,1.23-0.79,2c-2.62,4.08-8.41,5.53-12.58,5.53c-4.2,0-8.54-2.97-8.54-7.93c0-6.99,10.43-7.19,11.62-7.19
			c2.25,0,4.18,0.09,6.29,0.52l1.39,0.28l0.74-4.02l-1.37-0.26c-2.3-0.43-4.67-0.65-7.06-0.65c-7.84,0-15.76,3.5-15.76,11.33
			c0,6.77,5.56,12.06,12.67,12.06c5.19,0,9.89-1.62,13.37-4.54c0.09,2.16,1.64,3.78,3.75,3.87l1.45,0.06v-2.8L217.14,119.08z"/>
		<g>
			<rect x="175.7" y="93.14" class="st5" width="4.13" height="30.95"/>
			<path class="st5" d="M177.84,79.89c-2.21,0-4.01,1.8-4.01,4.01s1.8,4.01,4.01,4.01c2.21,0,4.01-1.8,4.01-4.01
				S180.05,79.89,177.84,79.89z"/>
		</g>
		<path class="st5" d="M167.67,85.54c-4.89,0-9.02,1.96-12.16,5.72v-5.72h-4.13v37.62h4.13V99.95c1.77-6.21,6.32-10.05,12.21-10.27
			l1.34-0.05v-4.08H167.67z"/>
		<path class="st5" d="M111.57,117.29l-1.09,0.54l-0.17,0.1c-1.54,0.93-3.26,1.43-4.85,1.43c-1.42,0-3.12-0.71-3.3-2.69v-27h8.39
			v-4.13h-8.39V73.4h-4.13v12.15H93v4.13h5.03v27.06c0,3.79,3.27,6.76,7.43,6.76c4.05,0,7.04-2.04,7.35-2.35l0.83-0.82
			L111.57,117.29z"/>
		<path class="st5" d="M90.89,119.07l-1.01-0.03c0-0.02-0.01-0.05-0.02-0.08V99.82c0-9-5.55-14.82-14.15-14.82
			c-3.94,0-8.14,1.57-12.87,4.81l-1.2,0.82l2.49,3.32l1.11-0.78c3.69-2.6,7.4-4.04,10.47-4.04c6.08,0,10.01,4.19,10.01,10.68v12.35
			c0,0.53-0.27,1.23-0.79,2c-2.62,4.08-8.41,5.53-12.58,5.53c-4.2,0-8.54-2.97-8.54-7.93c0-6.99,10.43-7.19,11.62-7.19
			c2.25,0,4.18,0.09,6.29,0.52l1.39,0.28l0.74-4.02l-1.37-0.26c-2.3-0.43-4.67-0.65-7.06-0.65c-7.84,0-15.75,3.5-15.75,11.33
			c0,6.77,5.56,12.06,12.67,12.06c5.19,0,9.89-1.62,13.37-4.54c0.09,2.16,1.64,3.78,3.75,3.87l1.45,0.06v-2.8L90.89,119.07z"/>
		<polygon class="st5" points="52.31,72.73 52.31,72.03 51.89,72.73 50.39,72.73 29.24,108.04 8.08,72.73 6.58,72.73 6.17,72.03 
			6.17,72.73 4.82,72.73 4.82,123.16 8.96,123.16 8.96,82.12 27.91,113.77 30.56,113.77 49.52,82.12 49.52,123.16 53.65,123.16 
			53.65,72.73 		"/>
	</g>
</g>
</svg>
