<?xml version="1.0" encoding="utf-8"?>
<!-- Generator: Adobe Illustrator 24.2.1, SVG Export Plug-In . SVG Version: 6.00 Build 0)  -->
<svg version="1.1" id="Layer_1" xmlns="http://www.w3.org/2000/svg" xmlns:xlink="http://www.w3.org/1999/xlink" x="0px" y="0px"
	 viewBox="0 0 329.24 57.23" style="enable-background:new 0 0 329.24 57.23;" xml:space="preserve">
<style type="text/css">
	.st0{fill:#FFFFFF;}
	.st1{fill:#5CA1CB;}
	.st2{fill:#73BF54;}
	.st3{fill:#9D539F;}
	.st4{fill:#EF804B;}
	.st5{fill:#231F20;}
</style>
<g>
	<g>
		<path class="st0" d="M97.82,26.84c-3.05-3.09-7.29-5.01-11.98-5.01c-5.06,0-9.59,2.23-12.68,5.76c-3.09-3.53-7.62-5.76-12.68-5.76
			c-2.18,0-4.26,0.42-6.17,1.17c0.75-1.91,1.17-3.99,1.17-6.17C55.5,7.54,47.96,0,38.66,0c-9.3,0-16.83,7.54-16.83,16.83
			c0,2.18,0.42,4.26,1.17,6.17c-1.91-0.75-3.99-1.17-6.17-1.17C7.54,21.83,0,29.37,0,38.66c0,9.3,7.54,16.83,16.83,16.83
			c9.3,0,16.83-7.54,16.83-16.83c0-2.18-0.42-4.26-1.17-6.17c1.91,0.75,3.99,1.17,6.17,1.17c2.18,0,4.26-0.42,6.17-1.17
			c-0.75,1.91-1.17,3.99-1.17,6.17c0,9.3,7.54,16.83,16.83,16.83c5.06,0,9.59-2.23,12.68-5.76c3.09,3.53,7.62,5.76,12.68,5.76
			c4.69,0,8.92-1.92,11.98-5.01V26.84z"/>
		<g>
			<path class="st1" d="M32.68,19.64c-0.4-0.85-0.63-1.8-0.63-2.81c0-3.65,2.96-6.62,6.62-6.62s6.62,2.96,6.62,6.62
				c0,1.07-0.26,2.07-0.71,2.97l6.54,6.54c2.02-2.64,3.22-5.93,3.22-9.51c0-8.65-7.02-15.67-15.67-15.67S23,8.18,23,16.83
				c0,3.52,1.16,6.76,3.11,9.38L32.68,19.64z"/>
			<path class="st1" d="M41.63,22.74c-0.89,0.45-1.9,0.71-2.97,0.71c-0.94,0-1.83-0.2-2.64-0.55l-6.59,6.59
				c2.59,1.89,5.78,3.01,9.23,3.01c3.58,0,6.87-1.2,9.51-3.22L41.63,22.74z"/>
		</g>
		<path class="st2" d="M60.49,22.99c-2.48,0-4.82,0.59-6.9,1.62c-0.47,0.91-1.03,1.76-1.65,2.56l5.58,5.58
			c0.89-0.45,1.9-0.71,2.97-0.71c3.65,0,6.62,2.96,6.62,6.62c0,3.65-2.96,6.62-6.62,6.62s-6.62-2.96-6.62-6.62
			c0-1.07,0.26-2.07,0.71-2.97L49,30.11c-0.8,0.62-1.66,1.18-2.56,1.65c-1.03,2.08-1.61,4.42-1.61,6.9
			c0,8.65,7.02,15.67,15.67,15.67s15.67-7.01,15.67-15.67C76.16,30.01,69.15,22.99,60.49,22.99z"/>
		<path class="st3" d="M28.6,30.33l-5.7,5.7c0.35,0.81,0.55,1.7,0.55,2.64c0,3.65-2.96,6.62-6.62,6.62s-6.62-2.96-6.62-6.62
			c0-3.65,2.96-6.62,6.62-6.62c1,0,1.95,0.23,2.81,0.63l5.64-5.64c-0.58-0.76-1.1-1.58-1.55-2.43c-2.08-1.02-4.42-1.61-6.9-1.61
			c-8.65,0-15.67,7.01-15.67,15.67c0,8.65,7.01,15.67,15.67,15.67c8.65,0,15.67-7.01,15.67-15.67c0-2.48-0.58-4.82-1.61-6.9
			C30.09,31.34,29.32,30.87,28.6,30.33z"/>
		<path class="st4" d="M96.82,27.49c-2.83-2.78-6.7-4.5-10.98-4.5c-4.78,0-9.06,2.14-11.93,5.52c2.14,2.82,3.41,6.34,3.41,10.15
			c0,3.82-1.27,7.33-3.41,10.15c2.87,3.37,7.15,5.51,11.93,5.51c4.28,0,8.15-1.72,10.98-4.5V27.49z M85.85,45.28
			c-3.65,0-6.62-2.96-6.62-6.62c0-3.65,2.96-6.62,6.62-6.62c3.65,0,6.62,2.96,6.62,6.62C92.46,42.32,89.5,45.28,85.85,45.28z"/>
	</g>
	<g>
		<path class="st5" d="M247.76,45.56c-1.72,4.09-6.28,6.95-11.08,6.95c-8.01,0-13.32-8.02-13.83-15.67l0-1.37
			c0.37-7.67,5.14-15.82,13.23-15.82c3.84,0,7.25,1.6,9.78,4.54l-20.49,8.25l1.57,4.14l25.53-10.23l-0.81-1.48
			c-3.35-6.14-9.03-9.66-15.58-9.66c-11.05,0-17.29,10.75-17.56,20.91c0,10.06,7.3,20.84,18.16,20.84c5.72,0,12.76-3.41,15.14-9.93
			l0.55-1.51l-4.1-1.17L247.76,45.56z"/>
		<path class="st5" d="M329.19,51.84l-1.08-0.04c-0.01-0.03-0.01-0.06-0.02-0.09V31.13c0-9.68-5.97-15.93-15.21-15.93
			c-4.23,0-8.76,1.69-13.84,5.17l-1.29,0.89l2.69,3.57l1.19-0.84c3.96-2.8,7.96-4.34,11.26-4.34c6.54,0,10.77,4.51,10.77,11.49
			v13.28c0,0.57-0.3,1.32-0.85,2.15c-2.81,4.39-9.05,5.95-13.53,5.95c-4.51,0-9.18-3.19-9.18-8.53c0-7.52,11.22-7.74,12.5-7.74
			c2.42,0,4.49,0.09,6.77,0.55l1.5,0.3l0.8-4.33l-1.47-0.28c-2.47-0.46-5.02-0.7-7.59-0.7c-8.43,0-16.94,3.77-16.94,12.18
			c0,7.28,5.98,12.97,13.62,12.97c5.58,0,10.64-1.75,14.38-4.88c0.1,2.33,1.76,4.06,4.03,4.16l1.56,0.07v-3.01L329.19,51.84z"/>
		<g>
			<rect x="284.62" y="23.95" class="st5" width="4.44" height="33.28"/>
			<path class="st5" d="M286.92,9.7c-2.38,0-4.31,1.93-4.31,4.31s1.93,4.31,4.31,4.31c2.38,0,4.31-1.93,4.31-4.31
				S289.3,9.7,286.92,9.7z"/>
		</g>
		<path class="st5" d="M275.99,15.78c-5.26,0-9.71,2.11-13.08,6.15v-6.15h-4.44v40.45h4.44V31.27c1.9-6.68,6.8-10.81,13.13-11.05
			l1.44-0.05v-4.39H275.99z"/>
		<path class="st5" d="M215.65,49.92l-1.17,0.58l-0.18,0.1c-1.66,1-3.51,1.54-5.21,1.54c-1.52,0-3.36-0.76-3.55-2.89V20.22h9.02
			v-4.44h-9.02V2.72h-4.44v13.06h-5.41v4.44h5.41v29.1c0,4.08,3.51,7.27,8,7.27c4.35,0,7.57-2.19,7.91-2.53l0.89-0.88L215.65,49.92z
			"/>
		<path class="st5" d="M193.41,51.84l-1.08-0.04c-0.01-0.03-0.01-0.05-0.02-0.08V31.13c0-9.68-5.97-15.93-15.21-15.93
			c-4.23,0-8.76,1.69-13.84,5.17l-1.29,0.88l2.68,3.57l1.19-0.84c3.96-2.8,7.96-4.34,11.26-4.34c6.54,0,10.77,4.51,10.77,11.49
			v13.28c0,0.57-0.29,1.32-0.85,2.15c-2.81,4.39-9.05,5.95-13.53,5.95c-4.51,0-9.18-3.19-9.18-8.53c0-7.52,11.22-7.74,12.5-7.74
			c2.42,0,4.49,0.09,6.77,0.55l1.5,0.3l0.8-4.33l-1.47-0.28c-2.47-0.46-5.02-0.7-7.59-0.7c-8.43,0-16.94,3.77-16.94,12.18
			c0,7.28,5.98,12.97,13.62,12.97c5.58,0,10.64-1.75,14.38-4.88c0.1,2.33,1.76,4.06,4.03,4.16l1.56,0.07v-3.01L193.41,51.84z"/>
		<polygon class="st5" points="151.93,2 151.93,1.25 151.48,2 149.86,2 127.12,39.98 104.37,2 102.76,2 102.31,1.25 102.31,2 
			100.86,2 100.86,56.23 105.31,56.23 105.31,12.09 125.69,46.13 128.54,46.13 148.93,12.09 148.93,56.23 153.37,56.23 153.37,2 		
			"/>
	</g>
</g>
</svg>
