<?xml version="1.0" encoding="utf-8"?>
<!-- Generator: Adobe Illustrator 15.1.0, SVG Export Plug-In . SVG Version: 6.00 Build 0)  -->
<!DOCTYPE svg PUBLIC "-//W3C//DTD SVG 1.0//EN" "http://www.w3.org/TR/2001/REC-SVG-20010904/DTD/svg10.dtd">
<svg version="1.0" id="Layer_1" xmlns="http://www.w3.org/2000/svg" xmlns:xlink="http://www.w3.org/1999/xlink" x="0px" y="0px"
	 width="584.349px" height="440.618px" viewBox="0 0 584.349 440.618" enable-background="new 0 0 584.349 440.618"
	 xml:space="preserve">
<g>
	<g>
		<path fill="#231F20" d="M374.291,418.519c-4.905,11.647-17.561,18.671-29.582,18.671c-20.088,0-34.956-19.186-36.382-40.771
			v-3.422c0.951-19.531,13.284-40.945,34.962-40.945c12.338,0,22.362,6.163,28.847,15.907l-49.706,20.014l1.192,3.177l53.523-21.449
			c-6.791-12.466-18.682-21.078-33.856-21.078c-22.939,0-37.495,22.275-38.129,46.081c0,22.785,16.614,45.914,39.549,45.914
			c12.344,0,27.532-7.363,32.59-21.237L374.291,418.519z"/>
		<path fill="#231F20" d="M543.881,432.048v-49.161c0-19.185-11.134-34.264-32.548-34.264c-10.961,0-21.58,5.312-30.839,11.651
			l2.063,2.74c9.936-7.021,20.212-10.962,28.775-10.962c17.648,0,29.128,12.678,29.128,30.835v31.522
			c0,2.055-0.866,4.451-2.572,7.021c-7.028,10.962-22.1,15.76-35.119,15.76c-13.192,0-25.351-9.426-25.351-23.81
			c0-16.617,18.672-21.933,33.229-21.933c5.761,0,10.991,0.222,16.771,1.391l0.595-3.211c-4.831-0.911-10.676-1.601-17.366-1.601
			c-15.413,0-36.655,6.168-36.655,25.354c0,15.245,12.678,27.237,28.776,27.237c13.872,0,28.608-5.137,37.691-16.791v8.222
			c0,3.599,2.222,6.687,6.164,6.854v-3.421C544.736,435.481,544.232,434.108,543.881,432.048z"/>
		<path fill="#231F20" d="M452.562,438.902v-76.635h3.432v76.635H452.562z M461.136,349.352c0,3.686-2.991,6.677-6.673,6.677
			s-6.673-2.991-6.673-6.677c0-3.682,2.991-6.667,6.673-6.667S461.136,345.67,461.136,349.352z"/>
		<path fill="#231F20" d="M433.256,353.422c-18.158,0.685-30.149,13.02-34.601,29.291v56.189h-3.427v-88.908h3.427v22.958
			c7.359-14.389,19.011-22.958,34.601-22.958V353.422z"/>
		<path fill="#231F20" d="M300.233,434.792c-0.166,0.173-6.854,4.973-16.271,4.973c-8.222,0-15.417-5.486-15.417-13.707v-72.636
			h-12.854v-3.428h12.854v-31.006h3.423v31.006h21.412v3.428h-21.412v72.636c0.515,6.676,5.995,10.275,11.994,10.275
			c7.878,0,14.051-4.109,14.389-4.285L300.233,434.792z"/>
		<path fill="#231F20" d="M242.94,432.048v-49.161c0-19.185-11.144-34.264-32.553-34.264c-10.961,0-21.58,5.312-30.839,11.651
			l2.063,2.74c9.934-7.021,20.208-10.962,28.775-10.962c17.648,0,29.12,12.678,29.12,30.835v31.522c0,2.055-0.854,4.451-2.567,7.021
			c-7.021,10.962-22.1,15.76-35.12,15.76c-13.188,0-25.351-9.426-25.351-23.81c0-16.617,18.673-21.933,33.233-21.933
			c5.762,0,10.992,0.222,16.768,1.391l0.603-3.211c-4.835-0.911-10.681-1.601-17.37-1.601c-15.418,0-36.655,6.168-36.655,25.354
			c0,15.245,12.672,27.237,28.772,27.237c13.878,0,28.61-5.137,37.688-16.791v8.222c0,3.599,2.227,6.687,6.173,6.854v-3.421
			C243.792,435.481,243.278,434.108,242.94,432.048z"/>
		<path fill="#231F20" d="M151.811,438.902v-114.09l-53.956,90.108h-2.746l-53.958-90.108v114.09h-3.427V317.276h2.74l56.014,93.536
			l56.019-93.536h2.74v121.626H151.811z"/>
	</g>
	<g>
		<path fill="#FFFFFF" d="M488.553,124.235c-28.786,0-54.585,12.712-72.149,32.806c-17.555-20.094-43.353-32.806-72.14-32.806
			c-12.396,0-24.229,2.379-35.102,6.668c4.285-10.876,6.664-22.708,6.664-35.104C315.827,42.89,272.938,0,220.03,0
			c-52.907,0-95.8,42.89-95.8,95.798c0,12.396,2.384,24.229,6.668,35.102c-10.873-4.287-22.706-6.666-35.102-6.666
			C42.887,124.235,0,167.127,0,220.034c0,52.908,42.887,95.796,95.796,95.796s95.796-42.888,95.796-95.796
			c0-12.398-2.38-24.231-6.668-35.104c10.873,4.284,22.705,6.665,35.105,6.665c12.396,0,24.233-2.381,35.106-6.665
			c-4.288,10.873-6.668,22.706-6.668,35.104c0,52.908,42.888,95.796,95.796,95.796c28.787,0,54.585-12.708,72.14-32.807
			c17.564,20.099,43.363,32.807,72.149,32.807c52.902,0,95.796-42.888,95.796-95.796
			C584.349,167.127,541.456,124.235,488.553,124.235z"/>
		<path fill="#EF804B" d="M488.553,130.864c-27.198,0-51.532,12.19-67.892,31.384c12.172,16.066,19.398,36.076,19.398,57.785
			c0,21.707-7.227,41.717-19.398,57.781c16.359,19.196,40.693,31.386,67.892,31.386c49.24,0,89.166-39.924,89.166-89.167
			C577.719,170.787,537.793,130.864,488.553,130.864z M488.553,257.69c-20.798,0-37.661-16.863-37.661-37.656
			c0-20.8,16.863-37.661,37.661-37.661c20.793,0,37.652,16.861,37.652,37.661C526.206,240.827,509.346,257.69,488.553,257.69z"/>
		<g>
			<path fill="#5CA1CB" d="M185.966,111.773c-2.283-4.857-3.594-10.257-3.594-15.975c0-20.799,16.861-37.659,37.657-37.659
				c20.794,0,37.658,16.86,37.658,37.659c0,6.079-1.479,11.805-4.038,16.889l37.231,37.229
				c11.481-15.008,18.317-33.761,18.317-54.118c0-49.246-39.924-89.17-89.169-89.17c-49.244,0-89.167,39.924-89.167,89.17
				c0,20.008,6.589,38.479,17.719,53.359L185.966,111.773z"/>
			<path fill="#5CA1CB" d="M236.921,129.418c-5.084,2.561-10.812,4.036-16.892,4.036c-5.343,0-10.419-1.128-15.025-3.137
				l-37.508,37.514c14.732,10.766,32.884,17.136,52.534,17.136c20.358,0,39.11-6.837,54.124-18.321L236.921,129.418z"/>
		</g>
		<path fill="#73BF54" d="M344.264,130.864c-14.11,0-27.421,3.349-39.281,9.19c-2.691,5.155-5.832,10.032-9.387,14.582
			l31.777,31.774c5.085-2.561,10.812-4.038,16.891-4.038c20.798,0,37.658,16.861,37.658,37.661c0,20.793-16.86,37.656-37.658,37.656
			c-20.796,0-37.657-16.863-37.657-37.656c0-6.084,1.474-11.809,4.032-16.895l-31.767-31.774c-4.552,3.549-9.432,6.697-14.586,9.389
			c-5.843,11.86-9.193,25.164-9.193,39.28c0,49.243,39.923,89.167,89.171,89.167c49.25,0,89.173-39.924,89.173-89.167
			C433.437,170.787,393.514,130.864,344.264,130.864z"/>
		<path fill="#9D539F" d="M162.741,172.584l-32.423,32.423c2.005,4.604,3.132,9.682,3.132,15.026
			c0,20.793-16.856,37.656-37.654,37.656c-20.797,0-37.658-16.863-37.658-37.656c0-20.8,16.86-37.661,37.658-37.661
			c5.719,0,11.121,1.313,15.976,3.596l32.094-32.092c-3.317-4.34-6.265-8.974-8.807-13.854c-11.859-5.829-25.161-9.158-39.264-9.158
			c-49.248,0-89.171,39.922-89.171,89.169c0,49.243,39.923,89.167,89.171,89.167c49.25,0,89.171-39.924,89.171-89.167
			c0-14.104-3.329-27.413-9.166-39.266C171.227,178.381,166.849,175.654,162.741,172.584z"/>
	</g>
</g>
</svg>
