<svg data-name="Layer 1" xmlns="http://www.w3.org/2000/svg" width="757.8" height="134.7"><g fill="#fff"><path d="M529.2 85.3l58-23.3-1-2a40.5 40.5 0 0 0-36-22.3c-25.5 0-40 25-40.6 48.6a53.4 53.4 0 0 0 11.8 33.1c8 9.9 18.8 15.3 30.2 15.3 13.2 0 29.4-7.8 34.9-22.8l.7-2-6.8-2-.7 1.7a30.7 30.7 0 0 1-28 17.7c-20.2 0-33.6-20-34.9-39.3v-3.3c1-19.2 13-39.5 33.4-39.5a32.1 32.1 0 0 1 26 13.1l-49.7 20zM755.8 125.5a1 1 0 0 1-.2 0s-.3-.3-.5-1.6V74.4c0-22.3-13.7-36.7-35-36.7-9.8 0-20.3 4-32.3 12.1l-1.7 1.2 4.5 6 1.6-1.1c9.8-7 19.7-10.7 28-10.7 16.4 0 27.4 11.7 27.4 29.2v31.8a11.6 11.6 0 0 1-2.3 6c-7 11.1-22.6 15-33.8 15-11.6 0-23.6-8.2-23.6-22 0-14.9 17-20.2 31.6-20.2a80.2 80.2 0 0 1 16.5 1.4l2 .4 1.4-7.2-2-.4a97.4 97.4 0 0 0-18-1.6c-19.4 0-39 8.5-39 27.6 0 16.6 13.7 29.5 31 29.5 14.2 0 27.3-5 36.2-13.7v3c0 5.1 3.4 8.8 8.2 9h2v-7.5zM658.7 53h7.5v80.1h-7.5zM608.2 57V39h-7.5v94h7.5V74.5c4.7-17 17-27.3 33-28h2V39h-2c-13.6 0-25 6.2-33 18zM503.9 122.3l-.4.2a26.5 26.5 0 0 1-13.3 4c-4.7 0-9.6-2.7-10.1-8.6V46.6h21.6V39h-21.6V7.7h-7.5v31.4h-13v7.5h13V118c0 9 7.6 15.9 17.6 15.9 9.8 0 17.2-5 17.9-5.6l1.2-1.2-3.9-5.6zM451.2 125.5s-.3-.3-.5-1.6V74.4c0-22.3-13.7-36.7-35-36.7-9.7 0-20.3 4-32.2 12.1l-1.7 1.2 4.4 6 1.6-1.1c9.8-7 19.7-10.7 28-10.7 16.4 0 27.4 11.7 27.4 29.2v31.8a11.5 11.5 0 0 1-2.2 6c-7.1 11.1-22.7 15-33.9 15-11.6 0-23.6-8.2-23.6-22 0-14.9 17-20.2 31.6-20.2a80.2 80.2 0 0 1 16.6 1.4l2 .4 1.3-7.2-2-.4a97.4 97.4 0 0 0-18-1.6c-19.4 0-39 8.5-39 27.6 0 16.6 13.7 29.5 31.1 29.5 14.2 0 27.3-5 36.1-13.7v3c0 5.1 3.4 8.8 8.2 9h2v-7.5h-2a1 1 0 0 1-.2 0zM300.6 98.7L245 6h-6v127h7.5V23l51.5 85.9h5l51.4-86V133h7.5V6h-5.9l-55.5 92.7zM669 42.5a6.7 6.7 0 1 1-6.7-6.7 6.7 6.7 0 0 1 6.8 6.7z"/></g><g fill="#5ca2cc"><path d="M75.7 44.4a15.9 15.9 0 1 1 28.5.3L120 60.5a37.6 37.6 0 1 0-60-.4z"/><path d="M97.2 51.8a15.8 15.8 0 0 1-13.5.4L67.9 68a37.6 37.6 0 0 0 45-.5z"/></g><path d="M142.4 52.4a37.4 37.4 0 0 0-16.5 3.9 40.4 40.4 0 0 1-4 6.1l13.4 13.4a16 16 0 1 1-7 7.1l-13.5-13.4a40.3 40.3 0 0 1-6.1 4 37.6 37.6 0 1 0 33.7-21z" fill="#73c055"/><path d="M65.9 70L52.2 83.7a16 16 0 1 1-7.8-8L57.9 62a40.3 40.3 0 0 1-3.7-5.8 37.7 37.7 0 1 0 17.2 17.2 40.4 40.4 0 0 1-5.5-3.5z" fill="#9e53a0"/><path d="M229.7 63.2a37.6 37.6 0 0 0-55 2.5 40.4 40.4 0 0 1 0 48.7 37.6 37.6 0 0 0 55 2.5zm-26.4 42.7A15.9 15.9 0 1 1 219.2 90a15.9 15.9 0 0 1-15.9 16z" fill="#f0824b"/></svg>
