<?xml version="1.0" encoding="utf-8"?>
<!-- Generator: Adobe Illustrator 15.1.0, SVG Export Plug-In . SVG Version: 6.00 Build 0)  -->
<!DOCTYPE svg PUBLIC "-//W3C//DTD SVG 1.0//EN" "http://www.w3.org/TR/2001/REC-SVG-20010904/DTD/svg10.dtd">
<svg version="1.0" id="Layer_1" xmlns="http://www.w3.org/2000/svg" xmlns:xlink="http://www.w3.org/1999/xlink" x="0px" y="0px"
	 width="543.825px" height="314.824px" viewBox="0 0 543.825 314.824" enable-background="new 0 0 543.825 314.824"
	 xml:space="preserve">
<g>
	<g>
		<path fill="#FFFFFF" d="M271.855,70.029c-15.9,0-30.149,7.022-39.85,18.121c-9.698-11.099-23.948-18.121-39.848-18.121
			c-6.847,0-13.384,1.314-19.39,3.682c2.368-6.006,3.682-12.542,3.682-19.39c0-29.225-23.689-52.914-52.914-52.914
			c-29.224,0-52.915,23.689-52.915,52.914c0,6.848,1.314,13.384,3.683,19.39c-6.007-2.368-12.542-3.682-19.39-3.682
			C25.69,70.029,2,93.72,2,122.943c0,29.224,23.69,52.915,52.915,52.915c29.223,0,52.914-23.69,52.914-52.915
			c0-6.847-1.314-13.383-3.682-19.39c6.006,2.368,12.542,3.684,19.39,3.684c6.847,0,13.384-1.316,19.39-3.684
			c-2.367,6.007-3.682,12.543-3.682,19.39c0,29.224,23.69,52.915,52.913,52.915c15.9,0,30.15-7.02,39.848-18.122
			c9.701,11.102,23.95,18.122,39.85,18.122c29.221,0,52.912-23.69,52.912-52.915C324.767,93.72,301.076,70.029,271.855,70.029z"/>
		<path fill="#A09F9F" d="M271.855,73.691c-15.022,0-28.463,6.732-37.499,17.336c6.722,8.873,10.715,19.927,10.715,31.916
			c0,11.99-3.993,23.044-10.715,31.916c9.035,10.604,22.476,17.337,37.499,17.337c27.197,0,49.252-22.052,49.252-49.253
			C321.107,95.741,299.052,73.691,271.855,73.691z M271.855,143.743c-11.489,0-20.802-9.313-20.802-20.8
			c0-11.488,9.313-20.801,20.802-20.801c11.484,0,20.797,9.313,20.797,20.801C292.652,134.43,283.339,143.743,271.855,143.743z"/>
		<g>
			<path fill="#7F7F7F" d="M104.72,63.145c-1.26-2.681-1.985-5.664-1.985-8.823c0-11.488,9.313-20.801,20.8-20.801
				c11.486,0,20.799,9.313,20.799,20.801c0,3.359-0.814,6.521-2.228,9.33l20.563,20.563c6.342-8.291,10.118-18.649,10.118-29.893
				c0-27.201-22.052-49.252-49.253-49.252S74.283,27.121,74.283,54.322c0,11.053,3.641,21.254,9.788,29.474L104.72,63.145z"/>
			<path fill="#7F7F7F" d="M132.866,72.893c-2.809,1.415-5.972,2.229-9.33,2.229c-2.952,0-5.756-0.625-8.299-1.732l-20.719,20.72
				c8.138,5.947,18.165,9.465,29.019,9.465c11.245,0,21.604-3.776,29.895-10.118L132.866,72.893z"/>
		</g>
		<path fill="#666766" d="M192.157,73.691c-7.795,0-15.145,1.849-21.695,5.077c-1.487,2.847-3.225,5.541-5.185,8.054l17.551,17.549
			c2.809-1.414,5.971-2.229,9.33-2.229c11.488,0,20.8,9.313,20.8,20.801c0,11.487-9.312,20.8-20.8,20.8
			c-11.487,0-20.8-9.313-20.8-20.8c0-3.359,0.815-6.522,2.229-9.332l-17.55-17.549c-2.513,1.961-5.208,3.698-8.055,5.185
			c-3.227,6.55-5.077,13.9-5.077,21.696c0,27.201,22.052,49.253,49.253,49.253s49.253-22.052,49.253-49.253
			C241.41,95.741,219.358,73.691,192.157,73.691z"/>
		<path fill="#3A3A3A" d="M91.892,96.735l-17.91,17.909c1.109,2.543,1.732,5.346,1.732,8.298c0,11.487-9.313,20.8-20.799,20.8
			c-11.487,0-20.8-9.313-20.8-20.8c0-11.488,9.313-20.801,20.8-20.801c3.159,0,6.141,0.725,8.823,1.985l17.727-17.726
			c-1.831-2.397-3.458-4.958-4.864-7.652c-6.548-3.22-13.896-5.059-21.686-5.059c-27.201,0-49.253,22.05-49.253,49.252
			c0,27.201,22.052,49.253,49.253,49.253c27.202,0,49.253-22.052,49.253-49.253c0-7.791-1.838-15.141-5.061-21.687
			C96.577,99.936,94.161,98.431,91.892,96.735z"/>
	</g>
	<g>
		<path d="M358.574,290.992c-4.975,11.818-17.818,18.947-30.014,18.947c-20.387,0-35.475-19.469-36.918-41.372v-3.475
			c0.961-19.816,13.479-41.545,35.473-41.545c12.523,0,22.693,6.256,29.275,16.141L305.949,260l1.213,3.219l54.309-21.767
			c-6.893-12.644-18.953-21.381-34.355-21.381c-23.273,0-38.043,22.601-38.686,46.759c0,23.118,16.852,46.586,40.131,46.586
			c12.521,0,27.93-7.476,33.066-21.554L358.574,290.992z"/>
		<path d="M530.656,304.722v-49.886c0-19.469-11.295-34.766-33.025-34.766c-11.125,0-21.902,5.389-31.291,11.823l2.09,2.779
			c10.084-7.128,20.512-11.125,29.201-11.125c17.906,0,29.555,12.863,29.555,31.289v31.982c0,2.09-0.875,4.521-2.611,7.128
			c-7.129,11.124-22.42,15.992-35.633,15.992c-13.385,0-25.725-9.561-25.725-24.16c0-16.862,18.945-22.251,33.721-22.251
			c5.848,0,11.15,0.221,17.014,1.41l0.604-3.263c-4.898-0.921-10.826-1.621-17.617-1.621c-15.645,0-37.201,6.254-37.201,25.726
			c0,15.469,12.863,27.637,29.205,27.637c14.076,0,29.029-5.217,38.244-17.035v8.341c0,3.652,2.258,6.781,6.254,6.954v-3.477
			C531.523,308.199,531.007,306.809,530.656,304.722z"/>
		<path d="M437.996,311.676v-77.759h3.479v77.759H437.996z M446.693,220.813c0,3.737-3.031,6.769-6.77,6.769
			c-3.74,0-6.77-3.032-6.77-6.769c0-3.741,3.029-6.773,6.77-6.773C443.662,214.04,446.693,217.072,446.693,220.813z"/>
		<path d="M418.408,224.939c-18.428,0.695-30.594,13.208-35.113,29.722v57.015h-3.475v-90.214h3.475v23.294
			c7.473-14.603,19.291-23.294,35.113-23.294V224.939z"/>
		<path d="M283.429,307.504c-0.176,0.175-6.953,5.039-16.513,5.039c-8.344,0-15.645-5.559-15.645-13.902v-73.702h-13.036v-3.477
			h13.036V190h3.475v31.461h21.729v3.477h-21.729v73.702c0.523,6.779,6.085,10.428,12.17,10.428c7.995,0,14.253-4.169,14.601-4.347
			L283.429,307.504z"/>
		<path d="M225.291,304.722v-49.886c0-19.469-11.299-34.766-33.028-34.766c-11.124,0-21.9,5.389-31.287,11.823l2.086,2.779
			c10.08-7.128,20.509-11.125,29.201-11.125c17.906,0,29.551,12.863,29.551,31.289v31.982c0,2.09-0.871,4.521-2.607,7.128
			c-7.128,11.124-22.424,15.992-35.636,15.992c-13.383,0-25.724-9.561-25.724-24.16c0-16.862,18.947-22.251,33.722-22.251
			c5.85,0,11.153,0.221,17.016,1.41l0.604-3.263c-4.898-0.921-10.829-1.621-17.62-1.621c-15.644,0-37.199,6.254-37.199,25.726
			c0,15.469,12.863,27.637,29.201,27.637c14.081,0,29.03-5.217,38.243-17.035v8.341c0,3.652,2.261,6.781,6.256,6.954v-3.477
			C226.158,308.199,225.637,306.809,225.291,304.722z"/>
		<path d="M132.827,311.676V195.909L78.073,287.34h-2.781l-54.756-91.431v115.767H17.06V188.261h2.781l56.841,94.907l56.841-94.907
			h2.781v123.415H132.827z"/>
	</g>
</g>
</svg>
