<?xml version="1.0" encoding="utf-8"?>
<!-- Generator: Adobe Illustrator 15.1.0, SVG Export Plug-In . SVG Version: 6.00 Build 0)  -->
<!DOCTYPE svg PUBLIC "-//W3C//DTD SVG 1.0//EN" "http://www.w3.org/TR/2001/REC-SVG-20010904/DTD/svg10.dtd">
<svg version="1.0" id="Layer_1" xmlns="http://www.w3.org/2000/svg" xmlns:xlink="http://www.w3.org/1999/xlink" x="0px" y="0px"
	 width="578.45px" height="436.169px" viewBox="0 0 578.45 436.169" enable-background="new 0 0 578.45 436.169"
	 xml:space="preserve">
<g>
	<g>
		<path fill="#231F20" d="M370.512,414.292c-4.855,11.53-17.384,18.485-29.282,18.485c-19.887,0-34.604-18.995-36.016-40.362v-3.387
			c0.94-19.332,13.149-40.531,34.607-40.531c12.215,0,22.138,6.101,28.557,15.748l-49.204,19.81l1.181,3.146l52.982-21.232
			c-6.724-12.34-18.492-20.865-33.516-20.865c-22.707,0-37.116,22.051-37.742,45.615c0,22.556,16.446,45.451,39.15,45.451
			c12.218,0,27.253-7.288,32.261-21.022L370.512,414.292z"/>
		<path fill="#231F20" d="M538.389,427.686v-48.664c0-18.992-11.021-33.919-32.216-33.919c-10.852,0-21.363,5.258-30.529,11.535
			l2.042,2.711c9.835-6.947,20.009-10.852,28.487-10.852c17.469,0,28.834,12.551,28.834,30.524v31.205
			c0,2.033-0.859,4.406-2.549,6.948c-6.958,10.852-21.875,15.603-34.764,15.603c-13.059,0-25.096-9.331-25.096-23.569
			c0-16.452,18.485-21.713,32.893-21.713c5.705,0,10.884,0.22,16.604,1.376l0.587-3.177c-4.78-0.903-10.566-1.586-17.191-1.586
			c-15.257,0-36.284,6.105-36.284,25.1c0,15.091,12.549,26.961,28.487,26.961c13.733,0,28.32-5.087,37.312-16.621v8.138
			c0,3.563,2.197,6.62,6.101,6.786v-3.39C539.235,431.082,538.737,429.726,538.389,427.686z"/>
		<path fill="#231F20" d="M447.993,434.472V358.61h3.396v75.861H447.993z M456.48,345.825c0,3.647-2.962,6.609-6.604,6.609
			c-3.646,0-6.607-2.962-6.607-6.609c0-3.646,2.962-6.601,6.607-6.601C453.518,339.225,456.48,342.18,456.48,345.825z"/>
		<path fill="#231F20" d="M428.882,349.852c-17.975,0.681-29.845,12.89-34.252,28.996v55.624h-3.392V346.46h3.392v22.727
			c7.286-14.244,18.82-22.727,34.252-22.727V349.852z"/>
		<path fill="#231F20" d="M297.202,430.404c-0.165,0.169-6.783,4.92-16.105,4.92c-8.14,0-15.263-5.43-15.263-13.567v-71.905H253.11
			v-3.392h12.724v-30.693h3.387v30.693h21.198v3.392H269.22v71.905c0.51,6.609,5.936,10.171,11.876,10.171
			c7.797,0,13.907-4.065,14.242-4.242L297.202,430.404z"/>
		<path fill="#231F20" d="M240.487,427.686v-48.664c0-18.992-11.029-33.919-32.223-33.919c-10.851,0-21.362,5.258-30.528,11.535
			l2.042,2.711c9.832-6.947,20.004-10.852,28.486-10.852c17.47,0,28.825,12.551,28.825,30.524v31.205
			c0,2.033-0.844,4.406-2.542,6.948c-6.95,10.852-21.877,15.603-34.766,15.603c-13.055,0-25.094-9.331-25.094-23.569
			c0-16.452,18.483-21.713,32.897-21.713c5.703,0,10.882,0.22,16.599,1.376l0.596-3.177c-4.784-0.903-10.571-1.586-17.194-1.586
			c-15.262,0-36.285,6.105-36.285,25.1c0,15.091,12.545,26.961,28.481,26.961c13.739,0,28.321-5.087,37.308-16.621v8.138
			c0,3.563,2.204,6.62,6.109,6.786v-3.39C241.332,431.082,240.822,429.726,240.487,427.686z"/>
		<path fill="#231F20" d="M150.277,434.472v-112.94l-53.41,89.2H94.15l-53.415-89.2v112.94h-3.392v-120.4h2.712l55.449,92.591
			l55.453-92.591h2.712v120.4H150.277z"/>
	</g>
	<g>
		<path fill="#FFFFFF" d="M483.62,122.979c-28.493,0-54.032,12.585-71.419,32.475c-17.379-19.89-42.916-32.475-71.412-32.475
			c-12.27,0-23.982,2.356-34.747,6.602c4.241-10.766,6.598-22.479,6.598-34.75C312.639,42.457,270.184,0,217.809,0
			c-52.375,0-94.833,42.457-94.833,94.831c0,12.271,2.36,23.984,6.602,34.748c-10.765-4.243-22.478-6.599-34.748-6.599
			c-52.375,0-94.83,42.46-94.83,94.832c0,52.374,42.455,94.829,94.83,94.829c52.374,0,94.828-42.455,94.828-94.829
			c0-12.273-2.354-23.987-6.602-34.75c10.765,4.241,22.479,6.599,34.753,6.599c12.271,0,23.988-2.357,34.752-6.599
			c-4.245,10.763-6.601,22.477-6.601,34.75c0,52.374,42.455,94.829,94.828,94.829c28.496,0,54.033-12.58,71.412-32.475
			c17.387,19.895,42.926,32.475,71.419,32.475c52.37,0,94.83-42.455,94.83-94.829C578.45,165.439,535.99,122.979,483.62,122.979z"/>
		<path fill="#A0A09F" d="M483.62,129.542c-26.922,0-51.011,12.068-67.204,31.067c12.049,15.904,19.202,35.712,19.202,57.202
			c0,21.488-7.153,41.296-19.202,57.198c16.193,19.003,40.282,31.069,67.204,31.069c48.744,0,88.269-39.521,88.269-88.267
			C571.888,169.062,532.364,129.542,483.62,129.542z M483.62,255.089c-20.587,0-37.281-16.695-37.281-37.278
			c0-20.59,16.694-37.28,37.281-37.28c20.583,0,37.274,16.69,37.274,37.28C520.894,238.395,504.203,255.089,483.62,255.089z"/>
		<g>
			<path fill="#807F7F" d="M184.088,110.645c-2.26-4.808-3.557-10.152-3.557-15.813c0-20.589,16.689-37.279,37.277-37.279
				c20.583,0,37.278,16.69,37.278,37.279c0,6.018-1.463,11.686-3.998,16.719l36.855,36.853
				c11.364-14.856,18.131-33.42,18.131-53.572c0-48.749-39.521-88.27-88.267-88.27c-48.747,0-88.267,39.521-88.267,88.27
				c0,19.807,6.522,38.09,17.539,52.821L184.088,110.645z"/>
			<path fill="#807F7F" d="M234.53,128.112c-5.033,2.533-10.703,3.994-16.721,3.994c-5.29,0-10.315-1.117-14.874-3.104
				l-37.13,37.134c14.583,10.657,32.554,16.964,52.004,16.964c20.152,0,38.715-6.768,53.576-18.135L234.53,128.112z"/>
		</g>
		<path fill="#676767" d="M340.789,129.542c-13.968,0-27.145,3.316-38.884,9.098c-2.664,5.104-5.773,9.931-9.292,14.435
			l31.456,31.454c5.033-2.537,10.703-3.998,16.72-3.998c20.588,0,37.278,16.69,37.278,37.28c0,20.583-16.69,37.278-37.278,37.278
			c-20.586,0-37.277-16.695-37.277-37.278c0-6.022,1.459-11.689,3.993-16.724l-31.447-31.453c-4.507,3.514-9.335,6.629-14.438,9.293
			c-5.783,11.74-9.102,24.909-9.102,38.883c0,48.746,39.521,88.267,88.271,88.267c48.752,0,88.272-39.521,88.272-88.267
			C429.061,169.062,389.541,129.542,340.789,129.542z"/>
		<path fill="#3A3A3A" d="M161.098,170.841l-32.096,32.096c1.985,4.559,3.101,9.584,3.101,14.875
			c0,20.583-16.687,37.278-37.273,37.278c-20.588,0-37.278-16.695-37.278-37.278c0-20.59,16.69-37.28,37.278-37.28
			c5.66,0,11.007,1.3,15.815,3.56l31.769-31.769c-3.283-4.296-6.201-8.883-8.718-13.715c-11.738-5.77-24.906-9.065-38.866-9.065
			c-48.752,0-88.271,39.519-88.271,88.269c0,48.746,39.52,88.267,88.271,88.267c48.751,0,88.271-39.521,88.271-88.267
			c0-13.962-3.295-27.136-9.073-38.87C169.498,176.58,165.166,173.88,161.098,170.841z"/>
	</g>
</g>
</svg>
