<?xml version="1.0" encoding="utf-8"?>
<!-- Generator: Adobe Illustrator 15.1.0, SVG Export Plug-In . SVG Version: 6.00 Build 0)  -->
<!DOCTYPE svg PUBLIC "-//W3C//DTD SVG 1.0//EN" "http://www.w3.org/TR/2001/REC-SVG-20010904/DTD/svg10.dtd">
<svg version="1.0" id="Layer_1" xmlns="http://www.w3.org/2000/svg" xmlns:xlink="http://www.w3.org/1999/xlink" x="0px" y="0px"
	 width="752.303px" height="134.935px" viewBox="0 0 752.303 134.935" enable-background="new 0 0 752.303 134.935"
	 xml:space="preserve">
<g>
	<g>
		<path d="M578.782,112.683c-4.937,11.732-17.682,18.802-29.784,18.802c-20.229,0-35.204-19.317-36.636-41.051v-3.45
			c0.955-19.666,13.378-41.227,35.202-41.227c12.428,0,22.519,6.207,29.052,16.017l-50.057,20.158l1.206,3.191l53.893-21.598
			c-6.845-12.546-18.81-21.218-34.094-21.218c-23.095,0-37.753,22.424-38.388,46.401c0,22.938,16.722,46.226,39.821,46.226
			c12.427,0,27.716-7.416,32.813-21.388L578.782,112.683z"/>
		<path d="M749.542,126.31V76.806c0-19.32-11.207-34.499-32.772-34.499c-11.036,0-21.733,5.348-31.049,11.729l2.075,2.759
			c10.004-7.068,20.352-11.039,28.974-11.039c17.771,0,29.327,12.764,29.327,31.049v31.738c0,2.068-0.868,4.484-2.589,7.07
			c-7.072,11.039-22.249,15.87-35.36,15.87c-13.281,0-25.526-9.488-25.526-23.974c0-16.734,18.799-22.079,33.46-22.079
			c5.803,0,11.064,0.219,16.888,1.396l0.598-3.238c-4.859-0.913-10.746-1.608-17.485-1.608c-15.522,0-36.915,6.208-36.915,25.529
			c0,15.35,12.769,27.424,28.981,27.424c13.968,0,28.807-5.175,37.949-16.904v8.279c0,3.623,2.24,6.729,6.207,6.9v-3.45
			C750.403,129.76,749.889,128.38,749.542,126.31z"/>
		<path d="M657.593,133.209V56.046h3.452v77.164H657.593z M666.222,43.042c0,3.711-3.009,6.72-6.715,6.72
			c-3.712,0-6.721-3.009-6.721-6.72c0-3.711,3.009-6.72,6.721-6.72C663.213,36.322,666.222,39.331,666.222,43.042z"/>
		<path d="M638.154,47.136c-18.283,0.691-30.356,13.111-34.845,29.498v56.576h-3.445V43.687h3.445v23.115
			c7.418-14.49,19.146-23.115,34.845-23.115V47.136z"/>
		<path d="M504.213,129.071c-0.173,0.17-6.899,5.002-16.386,5.002c-8.279,0-15.527-5.521-15.527-13.8V47.136h-12.934v-3.45h12.934
			v-31.22h3.45v31.22h21.563v3.45H475.75v73.137c0.518,6.727,6.039,10.348,12.077,10.348c7.934,0,14.143-4.139,14.49-4.312
			L504.213,129.071z"/>
		<path d="M446.522,126.31V76.806c0-19.32-11.213-34.499-32.777-34.499c-11.038,0-21.731,5.348-31.044,11.729l2.068,2.759
			c10.004-7.068,20.354-11.039,28.977-11.039c17.768,0,29.325,12.764,29.325,31.049v31.738c0,2.068-0.864,4.484-2.589,7.07
			c-7.068,11.039-22.25,15.87-35.358,15.87c-13.281,0-25.526-9.488-25.526-23.974c0-16.734,18.799-22.079,33.46-22.079
			c5.805,0,11.066,0.219,16.888,1.396l0.598-3.238c-4.862-0.913-10.747-1.608-17.485-1.608c-15.525,0-36.911,6.208-36.911,25.529
			c0,15.35,12.761,27.424,28.977,27.424c13.973,0,28.806-5.175,37.947-16.904v8.279c0,3.623,2.243,6.729,6.208,6.9v-3.45
			C447.383,129.76,446.863,128.38,446.522,126.31z"/>
		<path d="M354.767,133.209V18.333l-54.333,90.728h-2.76l-54.335-90.728v114.877h-3.45V10.744h2.76l56.405,94.175l56.403-94.175
			h2.76v122.465H354.767z"/>
	</g>
	<g>
		<g>
			<path fill="#FFFFFF" d="M233.818,64.157c-7.295-7.39-17.421-11.979-28.625-11.979c-12.088,0-22.925,5.338-30.3,13.776
				c-7.375-8.438-18.21-13.776-30.3-13.776c-5.206,0-10.177,0.999-14.744,2.799c1.801-4.568,2.8-9.535,2.8-14.743
				C132.648,18.013,114.634,0,92.414,0C70.192,0,52.178,18.013,52.178,40.234c0,5.208,1,10.175,2.801,14.743
				c-4.568-1.8-9.538-2.799-14.745-2.799C18.014,52.178,0,70.193,0,92.41c0,22.224,18.014,40.237,40.234,40.237
				c22.222,0,40.235-18.013,40.235-40.237c0-5.205-1-10.172-2.801-14.74c4.568,1.797,9.538,2.799,14.745,2.799
				c5.207,0,10.177-1.001,14.744-2.799c-1.801,4.568-2.8,9.535-2.8,14.74c0,22.224,18.013,40.237,40.234,40.237
				c12.09,0,22.925-5.336,30.3-13.779c7.375,8.443,18.211,13.779,30.3,13.779c11.204,0,21.33-4.586,28.625-11.977V64.157z"/>
			<g>
				<path fill="#5CA2CC" d="M78.108,46.94c-0.958-2.036-1.51-4.307-1.51-6.706c0-8.735,7.082-15.816,15.816-15.816
					c8.734,0,15.815,7.082,15.815,15.816c0,2.554-0.619,4.958-1.695,7.093l15.637,15.637c4.822-6.304,7.693-14.18,7.693-22.73
					c0-20.684-16.768-37.452-37.451-37.452S54.963,19.551,54.963,40.234c0,8.403,2.769,16.162,7.443,22.41L78.108,46.94z"/>
				<path fill="#5CA2CC" d="M99.509,54.354c-2.137,1.076-4.541,1.697-7.095,1.697c-2.246,0-4.376-0.476-6.311-1.316L70.348,70.488
					c6.189,4.521,13.814,7.199,22.066,7.199c8.55,0,16.426-2.874,22.731-7.696L99.509,54.354z"/>
			</g>
			<path fill="#73C055" d="M144.592,54.96c-5.928,0-11.517,1.408-16.497,3.861c-1.131,2.166-2.451,4.213-3.944,6.125l13.346,13.345
				c2.135-1.076,4.54-1.697,7.095-1.697c8.735,0,15.816,7.082,15.816,15.816c0,8.735-7.082,15.816-15.816,15.816
				c-8.734,0-15.816-7.082-15.816-15.816c0-2.553,0.62-4.958,1.695-7.093l-13.343-13.345c-1.912,1.492-3.961,2.813-6.126,3.942
				c-2.453,4.981-3.859,10.569-3.859,16.496c0,20.686,16.768,37.452,37.451,37.452c20.684,0,37.451-16.767,37.451-37.452
				C182.043,71.727,165.276,54.96,144.592,54.96z"/>
			<path fill="#9E53A0" d="M68.352,72.486L54.733,86.104c0.842,1.933,1.317,4.063,1.317,6.307c0,8.735-7.082,15.816-15.816,15.816
				s-15.815-7.082-15.815-15.816c0-8.734,7.081-15.816,15.815-15.816c2.402,0,4.671,0.553,6.711,1.513l13.478-13.48
				c-1.391-1.821-2.628-3.767-3.697-5.819c-4.979-2.446-10.567-3.847-16.491-3.847c-20.683,0-37.45,16.767-37.45,37.45
				c0,20.686,16.767,37.452,37.45,37.452c20.685,0,37.451-16.767,37.451-37.452c0-5.922-1.396-11.51-3.845-16.488
				C71.915,74.918,70.077,73.774,68.352,72.486z"/>
			<path fill="#F0824B" d="M231.428,65.705c-6.757-6.639-16.014-10.745-26.235-10.745c-11.422,0-21.644,5.122-28.512,13.184
				c5.11,6.746,8.146,15.151,8.146,24.266c0,9.12-3.036,17.525-8.146,24.271c6.868,8.062,17.089,13.181,28.512,13.181
				c10.222,0,19.478-4.106,26.235-10.744V65.705z M205.192,108.227c-8.735,0-15.815-7.082-15.815-15.816
				c0-8.734,7.08-15.816,15.815-15.816c8.735,0,15.817,7.082,15.817,15.816C221.009,101.145,213.927,108.227,205.192,108.227z"/>
		</g>
		<path fill="#FFFFFF" d="M233.818,64.157c-7.295-7.39-17.421-11.979-28.625-11.979c-12.088,0-22.925,5.338-30.3,13.776
			c-7.375-8.438-18.21-13.776-30.3-13.776c-5.206,0-10.177,0.999-14.744,2.799c1.801-4.568,2.8-9.535,2.8-14.743
			C132.648,18.013,114.634,0,92.414,0C70.192,0,52.178,18.013,52.178,40.234c0,5.208,1,10.175,2.801,14.743
			c-4.568-1.8-9.538-2.799-14.745-2.799C18.014,52.178,0,70.193,0,92.41c0,22.224,18.014,40.237,40.234,40.237
			c22.222,0,40.235-18.013,40.235-40.237c0-5.205-1-10.172-2.801-14.74c4.568,1.797,9.538,2.799,14.745,2.799
			c5.207,0,10.177-1.001,14.744-2.799c-1.801,4.568-2.8,9.535-2.8,14.74c0,22.224,18.013,40.237,40.234,40.237
			c12.09,0,22.925-5.336,30.3-13.779c7.375,8.443,18.211,13.779,30.3,13.779c11.204,0,21.33-4.586,28.625-11.977V64.157z"/>
		<g>
			<path fill="#7F7F7F" d="M78.108,46.94c-0.958-2.036-1.51-4.307-1.51-6.706c0-8.735,7.082-15.816,15.816-15.816
				c8.734,0,15.815,7.082,15.815,15.816c0,2.554-0.619,4.958-1.695,7.093l15.637,15.637c4.822-6.304,7.693-14.18,7.693-22.73
				c0-20.684-16.768-37.452-37.451-37.452S54.963,19.551,54.963,40.234c0,8.403,2.769,16.162,7.443,22.41L78.108,46.94z"/>
			<path fill="#7F7F7F" d="M99.509,54.354c-2.137,1.076-4.541,1.697-7.095,1.697c-2.246,0-4.376-0.476-6.311-1.316L70.348,70.488
				c6.189,4.521,13.814,7.199,22.066,7.199c8.55,0,16.426-2.874,22.731-7.696L99.509,54.354z"/>
		</g>
		<path fill="#666766" d="M144.592,54.96c-5.928,0-11.517,1.408-16.497,3.861c-1.131,2.166-2.451,4.213-3.944,6.125l13.346,13.345
			c2.135-1.076,4.54-1.697,7.095-1.697c8.735,0,15.816,7.082,15.816,15.816c0,8.735-7.082,15.816-15.816,15.816
			c-8.734,0-15.816-7.082-15.816-15.816c0-2.553,0.62-4.958,1.695-7.093l-13.343-13.345c-1.912,1.492-3.961,2.813-6.126,3.942
			c-2.453,4.981-3.859,10.569-3.859,16.496c0,20.686,16.768,37.452,37.451,37.452c20.684,0,37.451-16.767,37.451-37.452
			C182.043,71.727,165.276,54.96,144.592,54.96z"/>
		<path fill="#3A3A3A" d="M68.352,72.486L54.733,86.104c0.842,1.933,1.317,4.063,1.317,6.307c0,8.735-7.082,15.816-15.816,15.816
			s-15.815-7.082-15.815-15.816c0-8.734,7.081-15.816,15.815-15.816c2.402,0,4.671,0.553,6.711,1.513l13.478-13.48
			c-1.391-1.821-2.628-3.767-3.697-5.819c-4.979-2.446-10.567-3.847-16.491-3.847c-20.683,0-37.45,16.767-37.45,37.45
			c0,20.686,16.767,37.452,37.45,37.452c20.685,0,37.451-16.767,37.451-37.452c0-5.922-1.396-11.51-3.845-16.488
			C71.915,74.918,70.077,73.774,68.352,72.486z"/>
		<path fill="#A09F9F" d="M231.428,65.705c-6.757-6.639-16.014-10.745-26.235-10.745c-11.422,0-21.644,5.122-28.512,13.184
			c5.11,6.746,8.146,15.151,8.146,24.266c0,9.12-3.036,17.525-8.146,24.271c6.868,8.062,17.089,13.181,28.512,13.181
			c10.222,0,19.478-4.106,26.235-10.744V65.705z M205.192,108.227c-8.735,0-15.815-7.082-15.815-15.816
			c0-8.734,7.08-15.816,15.815-15.816c8.735,0,15.817,7.082,15.817,15.816C221.009,101.145,213.927,108.227,205.192,108.227z"/>
	</g>
</g>
</svg>
